<?xml version="1.0"?>
<svg width="45.334" height="45.334" xmlns="http://www.w3.org/2000/svg" xmlns:svg="http://www.w3.org/2000/svg" enable-background="new 0 0 45.334 45.334" version="1.1" xml:space="preserve">
 <g class="layer">
  <title>Layer 1</title>
  <g id="svg_1">
   <path d="m43.58,35.09l-12.43,-12.42l12.43,-12.43c2.34,-2.34 2.34,-6.14 0,-8.48c-2.35,-2.34 -6.15,-2.34 -8.49,0l-12.42,12.42l-12.43,-12.42c-2.34,-2.35 -6.14,-2.35 -8.48,0c-2.35,2.34 -2.35,6.14 0,8.48l12.42,12.43l-12.42,12.42c-2.35,2.35 -2.35,6.14 0,8.49c1.17,1.17 2.7,1.75 4.24,1.75c1.54,0 3.07,-0.58 4.24,-1.75l12.43,-12.43l12.42,12.43c1.17,1.17 2.71,1.75 4.24,1.75s3.08,-0.58 4.25,-1.75c2.34,-2.35 2.34,-6.14 0,-8.49z" fill="#ffffff" id="svg_2"/>
  </g>
 </g>
</svg>